<svg xmlns="http://www.w3.org/2000/svg" xmlns:xlink="http://www.w3.org/1999/xlink" width="18" height="24" viewBox="0 0 18 24"><defs><path id="38vza" d="M1493.994 60.997v14.998a3 3 0 0 1-2.999 3h-11.993a3 3 0 0 1-2.999-3V60.997a2.999 2.999 0 0 1 2.999-2.998h1.499c0-1.657 2.013-3 4.498-3 2.484 0 4.497 1.343 4.497 3h1.5a2.999 2.999 0 0 1 2.998 2.998zM1482 58h5.997c0-1.037-1.342-1.5-2.998-1.5-1.656 0-2.999.463-2.999 1.5zm10.495 16.496h-14.993v1.5c0 .828.672 1.5 1.5 1.5h11.993a1.5 1.5 0 0 0 1.5-1.5zm0-13.498a1.5 1.5 0 0 0-1.5-1.5h-1.499v4.5h-1.499v-4.5H1482v4.5h-1.499v-4.5h-1.5a1.5 1.5 0 0 0-1.499 1.5v11.998h14.993z"/></defs><g><g transform="translate(-1476 -55)"><use xlink:href="#38vza"/><use fill="#fff" xlink:href="#38vza"/></g></g></svg>