<svg xmlns="http://www.w3.org/2000/svg" xmlns:xlink="http://www.w3.org/1999/xlink" width="24" height="24" viewBox="0 0 24 24"><defs><path id="lgdaa" d="M1545.761 78.763a.785.785 0 0 1-1.098 0l-6.217-6.12a10.155 10.155 0 0 1-6.353 2.22c-5.574 0-10.092-4.447-10.092-9.934 0-5.486 4.518-9.931 10.092-9.931 5.575 0 10.093 4.445 10.094 9.93 0 2.566-.997 4.897-2.618 6.658l6.193 6.095a.758.758 0 0 1 0 1.082zm-5.128-13.834c0-4.641-3.823-8.404-8.54-8.404-4.716 0-8.54 3.763-8.54 8.404 0 4.643 3.824 8.405 8.54 8.405 4.717 0 8.54-3.762 8.54-8.405z"/></defs><g><g transform="translate(-1522 -55)"><use xlink:href="#lgdaa"/><use fill="#fff" xlink:href="#lgdaa"/></g></g></svg>