<svg xmlns="http://www.w3.org/2000/svg" xmlns:xlink="http://www.w3.org/1999/xlink" width="70" height="70" viewBox="0 0 70 70"><defs><path id="uutya" d="M955.934 3685.82a2.06 2.06 0 0 1-2.06-2.06v-29.525a2.06 2.06 0 0 1 3.379-1.582l17.714 14.762a2.059 2.059 0 0 1 0 3.165l-17.714 14.763a2.06 2.06 0 0 1-1.32.477zm2.06-27.187v20.73l12.437-10.366zm2.943 45.365a34.807 34.807 0 0 1-17.106-4.47 2.06 2.06 0 1 1 2.02-3.59c12.019 6.765 27.231 4.673 36.994-5.093 12.047-12.047 12.047-31.648 0-43.695-12.047-12.049-31.649-12.048-43.695 0-12.046 12.047-12.046 31.648 0 43.695a2.06 2.06 0 0 1-2.913 2.914c-13.653-13.654-13.653-35.869 0-49.523 13.654-13.652 35.867-13.653 49.522 0 13.653 13.654 13.653 35.869 0 49.523-6.726 6.725-15.733 10.24-24.822 10.24z"/></defs><g><g transform="translate(-926 -3634)"><use xlink:href="#uutya"/><use fill="#fff" xlink:href="#uutya"/></g></g></svg>