<svg xmlns="http://www.w3.org/2000/svg" xmlns:xlink="http://www.w3.org/1999/xlink" width="22" height="22" viewBox="0 0 22 22"><defs><path id="v8g8a" d="M942.583 5770.434l4.772-4.773a.737.737 0 0 1 1.04 1.041l-4.254 4.255 4.254 4.254a.736.736 0 0 1-1.04 1.04l-4.772-4.771a.73.73 0 0 1-.216-.523c0-.19.07-.378.216-.523zm3.404-10.408c6.066 0 10.985 4.917 10.985 10.985 0 6.065-4.919 10.984-10.985 10.984s-10.984-4.919-10.984-10.984c0-6.068 4.918-10.985 10.984-10.985zm0 20.497c5.245 0 9.514-4.27 9.514-9.513 0-5.245-4.269-9.513-9.514-9.513-5.244 0-9.512 4.268-9.512 9.514 0 5.242 4.268 9.512 9.512 9.512z"/></defs><g><g transform="translate(-935 -5760)"><use xlink:href="#v8g8a"/><use fill="#d1d1d1" xlink:href="#v8g8a"/></g></g></svg>