<svg xmlns="http://www.w3.org/2000/svg" xmlns:xlink="http://www.w3.org/1999/xlink" width="44" height="44" viewBox="0 0 44 44"><defs><path id="ysdga" d="M969.248 4902.748c0 .76-.616 1.376-1.375 1.376h-13.747a1.375 1.375 0 0 1 0-2.75h13.747c.76 0 1.375.616 1.375 1.374zm2.749-8.247c0 .758-.615 1.374-1.375 1.374h-19.246a1.375 1.375 0 0 1 0-2.75h19.246c.76 0 1.375.616 1.375 1.376zm10.998 2.749c0 10.63-9.847 19.246-21.996 19.246-1.406 0-2.778-.128-4.112-.347l-9.635 5.846v-9.734c-5.025-3.528-8.249-8.936-8.249-15.011 0-10.63 9.85-19.247 21.996-19.247 12.15 0 21.996 8.617 21.996 19.247zm-2.75 0c0-9.11-8.616-16.497-19.246-16.497-10.63 0-19.246 7.386-19.246 16.497 0 5.59 3.252 10.522 8.214 13.506l-.087 6.377 6.473-3.89c1.49.317 3.04.504 4.646.504 10.63 0 19.247-7.387 19.247-16.497z"/></defs><g><g transform="translate(-939 -4878)"><use xlink:href="#ysdga"/><use fill="#c7b299" xlink:href="#ysdga"/></g></g></svg>