<svg xmlns="http://www.w3.org/2000/svg" xmlns:xlink="http://www.w3.org/1999/xlink" width="54" height="44" viewBox="0 0 54 44"><defs><path id="pa2va" d="M1386.998 4920.304a1.69 1.69 0 0 1-1.688 1.691h-50.62a1.69 1.69 0 0 1-1.687-1.691 1.69 1.69 0 0 1 1.688-1.693h50.62a1.69 1.69 0 0 1 1.687 1.693zm0-8.46v1.691a1.69 1.69 0 0 1-1.688 1.692h-50.62a1.69 1.69 0 0 1-1.687-1.692v-1.692c0-14.38 11.19-26.193 25.31-27.072-.01-.128 0-3.384 0-3.384h-3.374a1.69 1.69 0 0 1-1.688-1.692 1.69 1.69 0 0 1 1.688-1.692h10.124a1.69 1.69 0 0 1 1.687 1.692 1.69 1.69 0 0 1-1.687 1.692h-3.375v3.384c14.12.878 25.31 12.692 25.31 27.072zm-3.375 0c0-13.083-10.575-23.689-23.622-23.689s-23.623 10.606-23.623 23.688z"/></defs><g><g transform="translate(-1333 -4878)"><use xlink:href="#pa2va"/><use fill="#c7b299" xlink:href="#pa2va"/></g></g></svg>